# xmcd CD database file
#
# Track frame offsets:
#	162
#	16717
#	39727
#	53712
#	73010
#	91327
#	110912
#	130855
#	150787
#	165567
#
# Disc length: 2416 seconds
#
# Revision: 0
# Processed by: cddbd v1.5.1PL0 Copyright (c) Steve Scherf et al.
# Submitted via: ACXtractor (MTCDDB.DLL V2003.12.21)
#
DISCID=76096e0a
DTITLE=Dr. Hector and the Groove Injectors - Emergency
DYEAR=1991
DGENRE=Blues
TTITLE0=Emergency
TTITLE1=When Did Love Let Go
TTITLE2=A Woman Like You
TTITLE3=Don't Be Afraid
TTITLE4=Downtown Drinking
TTITLE5=Southern Fried Groove
TTITLE6=Bad News
TTITLE7=14 Carat Fool
TTITLE8=Double Trouble
TTITLE9=Just To Satisfy you
EXTD=ID3G:   0 YEAR: 1991
EXTT0=
EXTT1=
EXTT2=
EXTT3=
EXTT4=
EXTT5=
EXTT6=
EXTT7=
EXTT8=
EXTT9=
PLAYORDER=
